<?xml version="1.0" encoding="utf-8"?><!-- Uploaded to: SVG Repo, www.svgrepo.com, Generator: SVG Repo Mixer Tools -->
<svg width="800px" height="800px" viewBox="0 0 24 24" id="discount" xmlns="http://www.w3.org/2000/svg" class="icon multi-color"><title style="stroke-width: 2;">discount</title><path id="tertiary-fill" d="M20,10c-.68-.61-1.63-.89-2.31-1.48-.84-.76-1.43-2.23-2.44-2.64s-2.16.37-3.24.37-2.27-.76-3.25-.37S7.16,7.75,6.32,8.51C5.63,9.1,4.68,9.38,4,10a9.68,9.68,0,0,0,.12-1.13,4.23,4.23,0,0,1,.31-1.63A2.94,2.94,0,0,1,5.6,6.38,6.53,6.53,0,0,0,7,5.49,8.26,8.26,0,0,0,8.08,4.17,3.3,3.3,0,0,1,9.11,3a.75.75,0,0,1,.28,0,4.32,4.32,0,0,1,1,.21A6.35,6.35,0,0,0,12,3.48a6.27,6.27,0,0,0,1.56-.27A2.75,2.75,0,0,1,14.91,3a3.51,3.51,0,0,1,1,1.13A7.65,7.65,0,0,0,17,5.49a7.14,7.14,0,0,0,1.38.89,3.14,3.14,0,0,1,1.18.86,4.68,4.68,0,0,1,.3,1.63C19.91,9.21,19.94,9.6,20,10Z" style="fill: #b7b7b7; stroke-width: 2;"></path><path id="secondary-fill" d="M11,9.5A1.5,1.5,0,1,1,9.5,8,1.5,1.5,0,0,1,11,9.5ZM14.5,13A1.5,1.5,0,1,0,16,14.5,1.5,1.5,0,0,0,14.5,13Z" style="fill: rgb(44, 169, 188); stroke-width: 2;"></path><path id="primary-stroke" d="M9,15l6-6m5.22.33c-.3-.91-.1-2.08-.65-2.83S17.84,5.56,17.08,5,15.8,3.39,14.89,3.1,13,3.36,12,3.36s-2-.55-2.89-.26S7.68,4.46,6.92,5,5,5.73,4.43,6.5s-.35,1.92-.65,2.83S2.64,11,2.64,12s.86,1.79,1.14,2.67.1,2.08.65,2.83,1.73.94,2.49,1.49S8.2,20.61,9.11,20.9,11,20.64,12,20.64s2,.55,2.89.26,1.43-1.36,2.19-1.91,1.94-.72,2.49-1.49.35-1.92.65-2.83S21.36,13,21.36,12,20.5,10.21,20.22,9.33Z" style="fill: none; stroke: rgb(0, 0, 0); stroke-linecap: round; stroke-linejoin: round; stroke-width: 2;"></path></svg>